<svg width="28" height="28" viewBox="0 0 28 28" fill="none" xmlns="http://www.w3.org/2000/svg">
<rect x="0.5" y="0.5" width="27" height="27" rx="13.5" fill="#FF3D3D"/>
<rect x="0.5" y="0.5" width="27" height="27" rx="13.5" stroke="white"/>
<mask id="mask0" style="mask-type:alpha" maskUnits="userSpaceOnUse" x="5" y="5" width="19" height="19">
<rect x="5.5" y="5.5" width="18" height="18" fill="#D9D9D9"/>
</mask>
<g mask="url(#mask0)">
<path d="M10.303 21.625V14.9933C9.628 14.8183 9.09625 14.4897 8.70775 14.0074C8.31925 13.5252 8.125 12.961 8.125 12.3149V7.375H9.25V11.7524H10.303V7.375H11.4278V11.7524H12.4808V7.375H13.6058V12.3149C13.6058 12.961 13.4116 13.5252 13.0231 14.0074C12.6346 14.4897 12.1028 14.8183 11.4278 14.9933V21.625H10.303ZM17.5649 21.625V14.7265C16.8899 14.4966 16.3582 14.0536 15.9698 13.3973C15.5813 12.7411 15.3871 11.9736 15.3871 11.0948C15.3871 10.0639 15.6556 9.18625 16.1926 8.46175C16.7296 7.73725 17.3745 7.375 18.1274 7.375C18.8851 7.375 19.5325 7.73919 20.0695 8.46756C20.6065 9.19594 20.875 10.0755 20.875 11.1062C20.875 11.9899 20.6796 12.7579 20.2887 13.4102C19.8978 14.0627 19.3649 14.5015 18.6899 14.7265V21.625H17.5649Z" fill="white"/>
</g>
</svg>
