<svg width="71" height="64" viewBox="0 0 71 64" fill="none" xmlns="http://www.w3.org/2000/svg">
<path d="M46.3903 10.3927L47.9691 10.2596L58.2584 10.3131C58.2584 10.3131 58.7936 13.2211 56.4069 15.7679C53.7336 18.6207 47.8964 19.458 47.8964 19.458L46.3903 10.3927Z" fill="#C8B595"/>
<path d="M47.1162 10.9574L48.4082 18.7343C49.9283 18.438 53.9471 17.4807 55.9518 15.3415C57.5378 13.6489 57.7101 11.8067 57.6876 10.934L47.9936 10.8834L47.1162 10.9574ZM47.8954 20.0818C47.5953 20.0818 47.3317 19.8648 47.281 19.5601L45.7746 10.4948C45.7462 10.3232 45.7909 10.1473 45.8977 10.0099C46.0047 9.8723 46.1641 9.7858 46.3376 9.77122L47.9167 9.63812C47.9351 9.63644 47.9537 9.6362 47.9724 9.63597L58.2616 9.68949C58.5613 9.69117 58.8172 9.90576 58.8715 10.2004C58.8956 10.3318 59.4342 13.4496 56.8618 16.1943C54.0709 19.1728 48.2319 20.0397 47.9848 20.0751C47.9549 20.0794 47.925 20.0818 47.8954 20.0818Z" fill="black"/>
<path d="M61.8058 18.0275C61.8058 18.0275 57.1195 19.8162 54.2663 18.9597C54.2663 18.9597 52.5302 16.3729 54.1272 13.914C55.4981 11.8013 57.7547 17.0287 57.7547 17.0287C57.7547 17.0287 57.726 14.0232 59.0558 12.9056C60.3859 11.7872 62.1815 15.5382 61.8058 18.0275Z" fill="#DEB972"/>
<path d="M54.6716 18.4225C55.0788 18.5191 55.5505 18.5678 56.0776 18.5678H56.0781C58.0911 18.5678 60.3637 17.8652 61.2263 17.5713C61.3066 16.1574 60.7059 14.4409 60.0437 13.6717C59.809 13.3988 59.6353 13.3257 59.5698 13.3257C59.5397 13.3257 59.502 13.345 59.457 13.3828C58.5509 14.1443 58.3712 16.2683 58.3784 17.0224C58.381 17.3192 58.1743 17.5768 57.8837 17.6382C57.5936 17.6994 57.2999 17.5481 57.1821 17.2757C56.4487 15.5796 55.3507 14.0344 54.8787 14.0344C54.8259 14.0344 54.7366 14.1202 54.6503 14.2531C53.5152 16.0006 54.3456 17.8337 54.6716 18.4225ZM56.0776 19.8154C55.3282 19.8154 54.6584 19.7282 54.0868 19.5566C53.9485 19.5153 53.829 19.4269 53.7485 19.3069C53.6682 19.1874 51.8035 16.3464 53.6041 13.5739C54.0261 12.9235 54.5301 12.787 54.8787 12.787C55.8203 12.787 56.7083 13.8459 57.3616 14.9083C57.5645 14.0036 57.9444 13.025 58.6544 12.4279C58.9265 12.1994 59.2427 12.0785 59.5698 12.0785C59.9113 12.0785 60.4351 12.214 60.9895 12.858C62.0345 14.0724 62.6773 16.4329 62.4226 18.1202C62.3891 18.3427 62.2383 18.5296 62.0283 18.6099C61.8995 18.6593 58.8384 19.8152 56.0781 19.8154H56.0776Z" fill="black"/>
<path d="M45.134 40.0402C45.134 40.0402 46.5528 39.4987 48.3388 37.6926C50.8223 35.1797 54.0158 28.4048 55.0868 19.0606C55.0868 19.0606 57.7446 19.1225 61.747 17.8957C61.747 17.8957 67.3703 37.944 51.3432 48.2075" fill="#C8B595"/>
<path d="M51.3437 48.8938C51.1176 48.8938 50.8963 48.7817 50.7654 48.5772C50.5611 48.2584 50.654 47.834 50.973 47.6297C57.4207 43.5009 61.0864 37.2943 61.8681 29.1826C62.3295 24.3938 61.5942 20.3156 61.2492 18.7571C58.6249 19.4967 56.6489 19.6857 55.6971 19.7326C54.5577 28.8182 51.45 35.5209 48.8264 38.1748C46.9577 40.0653 45.442 40.657 45.3784 40.6813C45.0245 40.8161 44.6281 40.6393 44.4928 40.2851C44.3583 39.9319 44.5342 39.5367 44.8864 39.4005C44.9091 39.3914 46.2162 38.8631 47.8507 37.2101C50.2834 34.7491 53.3722 27.9952 54.4055 18.9825C54.4452 18.6355 54.7389 18.3745 55.0865 18.3745C55.0918 18.3745 55.0973 18.3745 55.1028 18.375C55.1279 18.3748 57.7149 18.4142 61.546 17.2399C61.7225 17.1857 61.9137 17.2051 62.076 17.2937C62.238 17.3824 62.3577 17.5327 62.4077 17.7105C62.4664 17.92 63.841 22.9187 63.2383 29.2677C62.883 33.0108 61.9077 36.4392 60.3392 39.4578C58.3735 43.2404 55.471 46.3787 51.7131 48.7853C51.5984 48.8587 51.4703 48.8938 51.3437 48.8938Z" fill="black"/>
<path d="M55.3955 22.4993C55.3955 22.4993 52.7518 17.9695 55.3658 18.0519C56.6997 18.0935 58.1041 20.334 58.1041 20.334C58.1041 20.334 57.4125 22.245 55.3955 22.4993Z" fill="#DEB972"/>
<path d="M55.2971 18.4872C54.8667 18.4872 54.7735 18.649 54.7384 18.7102C54.4072 19.2873 55.0204 20.9013 55.6247 22.0158C56.8114 21.7424 57.4045 20.7854 57.609 20.3746C57.0716 19.5879 56.0902 18.5111 55.3525 18.488C55.3336 18.4875 55.3152 18.4872 55.2971 18.4872ZM55.3958 22.9358C55.2419 22.9358 55.0975 22.8543 55.0187 22.7191C54.7166 22.2017 53.2468 19.5542 53.9813 18.275C54.1606 17.963 54.5496 17.5868 55.3802 17.6155C56.9024 17.6628 58.318 19.8527 58.4743 20.1022C58.5455 20.2159 58.5606 20.3562 58.5147 20.4826C58.4832 20.5708 57.7065 22.6476 55.4505 22.9327C55.4318 22.9348 55.4137 22.9358 55.3958 22.9358Z" fill="black"/>
<path d="M54.0041 21.35C54.0041 21.35 59.1786 21.8389 63.0599 20.006C63.0599 20.006 64.0021 20.6983 63.8114 24.0481C63.8114 24.0481 56.6277 26.4795 54.136 24.9375C54.136 24.9375 53.0703 23.3061 54.0041 21.35Z" fill="#D51317"/>
<path d="M54.5924 24.4789C55.0424 24.7066 55.7268 24.8261 56.5861 24.8261C58.9827 24.8261 62.1073 23.9278 63.2075 23.5866C63.2541 22.0035 63.0178 21.1769 62.8407 20.7859C60.3885 21.8101 57.5859 22.0329 55.6111 22.0329C55.11 22.0329 54.6995 22.0178 54.4113 22.0025C54.0158 23.1763 54.4206 24.1467 54.5924 24.4789ZM56.5861 26.0737C55.3748 26.0737 54.4663 25.8759 53.8079 25.4682C53.7303 25.4199 53.6641 25.3552 53.6141 25.2789C53.5627 25.2003 52.3689 23.3283 53.4416 21.0813C53.5541 20.845 53.8027 20.7037 54.0629 20.7293C54.0686 20.7298 54.6768 20.7855 55.6111 20.7855C57.2313 20.7855 60.3187 20.611 62.7939 19.442C63.0011 19.3443 63.2448 19.3679 63.4295 19.5034C63.6326 19.6525 64.6341 20.5737 64.4341 24.0836C64.4198 24.3377 64.2525 24.5575 64.0116 24.639C63.8386 24.6975 59.7368 26.0737 56.5861 26.0737Z" fill="black"/>
<path d="M50.8637 40.6243C50.8637 40.6243 53.1123 50.9778 53.069 59.9665C53.069 59.9665 47.9885 62.938 36.0494 63.5423C25.3637 64.0829 18.2889 61.6297 18.2889 61.6297C18.6051 58.9124 20.809 39.7915 20.809 39.7915" fill="#C8B595"/>
<path d="M18.6288 61.8794C18.6046 61.8794 18.5802 61.878 18.5559 61.8751C18.2137 61.8352 17.9685 61.5257 18.0084 61.1835C18.3205 58.5024 20.1701 39.9172 20.1885 39.7298C20.2226 39.3872 20.5287 39.137 20.8709 39.1709C21.2136 39.2051 21.4641 39.5105 21.4299 39.8534C21.4112 40.0405 19.5607 58.6367 19.2477 61.3274C19.2106 61.6454 18.9408 61.8794 18.6288 61.8794Z" fill="black"/>
<path d="M53.0554 61.4216H53.0525C52.7079 61.4197 52.43 61.1392 52.4317 60.7951C52.4735 51.9716 50.2743 40.8576 50.2524 40.7465C50.1847 40.4088 50.4039 40.08 50.7418 40.0126C51.0794 39.9457 51.408 40.1644 51.4756 40.502C51.4978 40.6146 53.7216 51.853 53.6791 60.8006C53.6774 61.1444 53.3983 61.4216 53.0554 61.4216Z" fill="black"/>
<path d="M53.7764 24.7049C53.7764 24.7049 58.5153 26.3812 63.8722 23.2357C63.8722 23.2357 66.9741 22.3736 63.0886 34.8331C63.0886 34.8331 59.8906 44.2301 52.0588 47.8098C52.0588 47.8098 48.1412 43.6294 44.8842 37.9858C44.8842 37.9858 50.0104 35.935 51.5868 30.5246C51.5868 30.5246 52.5269 25.0299 53.7764 24.7049Z" fill="white"/>
<path d="M45.7677 38.2595C48.354 42.5998 51.2749 45.9995 52.2097 47.0471C59.3337 43.5231 62.3981 34.9197 62.4961 34.6387C65.1154 26.2355 64.3985 24.3305 64.1165 23.947C64.0852 23.9047 64.057 23.8779 64.0338 23.8626C61.817 25.1318 59.4498 25.775 56.9952 25.775C55.4847 25.775 54.3628 25.5213 53.8597 25.3817C53.6886 25.5688 53.2838 26.1722 52.7854 28.0089C52.4248 29.337 52.204 30.6172 52.2016 30.6298C52.1977 30.6533 52.1923 30.6767 52.1856 30.6989C50.8686 35.2196 47.2601 37.4912 45.7677 38.2595ZM52.0592 48.4333C51.8902 48.4333 51.7244 48.365 51.6039 48.2362C51.5643 48.1939 47.5996 43.9382 44.344 38.2975C44.2534 38.1407 44.2355 37.9526 44.2948 37.7815C44.3538 37.6107 44.4845 37.4738 44.6525 37.4066C44.7 37.3877 49.4982 35.3991 50.9783 30.3832C51.0194 30.15 51.2476 28.8878 51.6121 27.5706C52.3906 24.7559 53.0939 24.238 53.6193 24.1011C53.74 24.07 53.8671 24.0755 53.9845 24.1169C53.995 24.1207 55.1841 24.5274 56.9952 24.5274C59.2816 24.5274 61.4891 23.9118 63.5564 22.6979C63.6032 22.6704 63.6532 22.6494 63.7053 22.6348C63.753 22.6214 63.8537 22.5992 63.9915 22.5992C64.2463 22.5992 64.7316 22.6783 65.1211 23.2079C66.1828 24.6505 65.7125 28.514 63.6845 35.0186C63.6826 35.0241 63.6806 35.0289 63.6792 35.0344C63.6455 35.1329 62.8349 37.4867 61.037 40.3138C59.369 42.9367 56.5024 46.4648 52.3182 48.377C52.235 48.4149 52.1464 48.4333 52.0592 48.4333Z" fill="black"/>
<path d="M54.5028 61.0912C55.2544 46.7651 48.3892 38.2097 48.3892 38.2097L37.2975 44.1745C39.0959 49.3043 39.3712 58.5047 39.382 63.3365C39.382 63.3365 47.9748 63.7523 54.5028 61.0912Z" fill="#D51317"/>
<path d="M39.3793 63.4172C39.0364 63.4172 38.7578 63.1408 38.7556 62.7976C38.7265 58.0162 38.4213 49.2653 36.7087 44.3814C36.6071 44.0918 36.7314 43.7711 37.0017 43.6258L48.0934 37.6605C48.3581 37.5179 48.6869 37.585 48.8752 37.8197C48.946 37.9081 50.6285 40.026 52.2506 43.9118C53.741 47.4819 55.4532 53.2854 55.1471 60.657C55.1327 61.0013 54.8429 61.2668 54.498 61.2541C54.1539 61.24 53.8865 60.9495 53.9009 60.6051C54.396 48.6703 49.4949 40.8521 48.2069 39.0159L38.0548 44.4758C39.6785 49.6015 39.9741 58.0893 40.003 62.7897C40.0054 63.1343 39.7277 63.4156 39.3834 63.4172H39.3793Z" fill="black"/>
<path d="M16.1774 61.9575C15.8441 58.3035 15.6431 51.3018 17.7242 42.8695C17.7242 42.8695 18.8894 42.0774 20.4271 41.7978C23.7437 41.1949 27.1893 47.0246 33.0097 46.3649C33.0097 46.3649 34.2982 55.6343 34.1085 63.7918C34.1085 63.7918 22.3494 64.8102 16.1774 61.9575Z" fill="#D11317"/>
<path d="M16.1593 60.6305C15.8376 56.9192 15.6814 51.147 17.7243 42.8698C17.7243 42.8698 18.8892 42.0774 20.4269 41.7978C23.7437 41.1951 27.1891 47.0246 33.0098 46.3651C33.0098 46.3651 34.2294 55.3889 34.1205 63.3762" fill="#D51317"/>
<path d="M34.1206 64H34.1117C33.7674 63.995 33.4919 63.7123 33.4967 63.3677C33.5882 56.6736 32.7284 49.1541 32.466 47.0324C29.2787 47.1679 26.7718 45.5099 24.7336 44.1615C23.1343 43.1041 21.7531 42.1919 20.5386 42.4115C19.5035 42.5996 18.6403 43.0496 18.2692 43.2656C16.2961 51.3875 16.4732 57.0285 16.7807 60.5768C16.8103 60.9198 16.5561 61.222 16.2129 61.2519C15.8698 61.2818 15.5675 61.0278 15.5379 60.6841C15.2196 57.012 15.0372 51.154 17.1186 42.72C17.1554 42.5707 17.2462 42.44 17.3733 42.3537C17.4254 42.3186 18.6666 41.4836 20.3155 41.1842C22.0231 40.875 23.6741 41.9654 25.4216 43.1213C27.5247 44.5123 29.9086 46.088 32.9394 45.7451C33.2766 45.7064 33.5824 45.9449 33.6278 46.2813C33.64 46.3721 34.8525 55.4429 34.744 63.3849C34.7393 63.7261 34.4609 64 34.1206 64Z" fill="black"/>
<path d="M48.4435 15.7957C48.102 15.7957 47.8062 15.5412 47.7632 15.1935C47.7168 14.8176 47.9842 14.4749 48.3603 14.4285L51.4432 14.0481C51.8191 14.0032 52.1617 14.2689 52.2081 14.6448C52.2547 15.0209 51.9873 15.3634 51.6112 15.41L48.5283 15.7906C48.4999 15.7937 48.4714 15.7957 48.4435 15.7957Z" fill="black"/>
<path d="M12.3727 12.4908L1.31396 13.8823C1.31396 13.8823 1.37227 17.1742 4.52993 19.3894C7.68735 21.6044 14.1862 21.4146 14.1862 21.4146L12.3727 12.4908Z" fill="#C8B595"/>
<path d="M2.00017 14.4245C2.16433 15.3826 2.75648 17.3834 4.88803 18.8786C6.81862 20.2328 10.4908 20.7516 13.4236 20.7922L11.8767 13.1817L2.00017 14.4245ZM13.8004 22.0422C12.2581 22.0422 7.00573 21.8876 4.17162 19.8999C0.793165 17.5296 0.6928 14.0408 0.69041 13.8933C0.684675 13.575 0.919815 13.3036 1.23596 13.2637L12.2949 11.8717C12.6187 11.8318 12.9189 12.0466 12.9839 12.3664L14.7974 21.2902C14.8342 21.4704 14.7892 21.658 14.675 21.8021C14.5608 21.9462 14.3885 22.0322 14.2045 22.0379C14.2045 22.0379 14.0592 22.0422 13.8004 22.0422Z" fill="black"/>
<path d="M13.7695 12.3105L16.3554 2.99096L20.3953 11.1191L13.7695 12.3105Z" fill="#DEB972"/>
<path d="M16.5213 4.72616L14.6359 11.5211L19.4668 10.6525L16.5213 4.72616ZM13.7697 12.9343C13.5957 12.9343 13.4279 12.8614 13.3087 12.7307C13.1644 12.5721 13.1111 12.3505 13.1687 12.1438L15.7545 2.82425C15.8235 2.57549 16.0389 2.39483 16.2962 2.37022C16.5536 2.3468 16.799 2.48205 16.9139 2.71361L20.9538 10.8415C21.0411 11.0174 21.0408 11.2241 20.9524 11.3995C20.8645 11.5749 20.6986 11.6984 20.5058 11.7331L13.8798 12.9243C13.843 12.931 13.8062 12.9343 13.7697 12.9343Z" fill="black"/>
<path d="M40.0095 9.42957L42.6321 0.623278L46.4274 9.76221L40.0095 9.42957Z" fill="#DEB972"/>
<path d="M40.8336 8.84777L45.4724 9.08817L42.7293 2.48297L40.8336 8.84777ZM46.4275 10.3857C46.4168 10.3857 46.406 10.3855 46.395 10.3848L39.9774 10.0524C39.7865 10.0426 39.6106 9.94557 39.5002 9.78929C39.3898 9.63301 39.3573 9.43467 39.412 9.25138L42.0344 0.445328C42.1099 0.192265 42.3362 0.0142365 42.5998 0.000616074C42.8636 -0.0127659 43.1071 0.140409 43.2084 0.384152L46.9826 9.4729C47.0278 9.55941 47.0536 9.65762 47.0536 9.76205C47.0536 10.1066 46.7742 10.3857 46.4299 10.3857C46.4292 10.3855 46.4282 10.3857 46.4275 10.3857Z" fill="black"/>
<path d="M12.3225 12.6136C12.9359 12.0332 40.0319 6.71549 47.023 9.91115C47.7031 10.2225 48.2702 17.7105 48.4477 19.9017C48.6253 22.0928 48.8865 29.8572 48.9677 31.8174C49.0492 33.7772 49.0753 37.7265 48.6033 39.1704C48.1318 40.6139 45.5264 45.5263 37.0968 47.026C28.6666 48.527 22.0619 45.8654 20.2257 42.4238C18.39 38.9818 16.3686 30.2121 16.3686 30.2121L12.9766 17.292C12.9766 17.292 11.7089 13.1938 12.3225 12.6136Z" fill="#C8B595"/>
<path d="M12.7848 13.0874C12.7038 13.6294 13.0496 15.418 13.5722 17.1079C13.5751 17.1163 13.5772 17.1249 13.5796 17.1338L16.9717 30.0538C16.9734 30.06 16.9748 30.0658 16.9762 30.0722C16.9963 30.159 19.0003 38.8013 20.776 42.1306C22.0241 44.4703 26.0951 46.831 32.3755 46.831C33.8757 46.831 35.4273 46.6902 36.9875 46.4126C40.4826 45.7905 43.3181 44.5128 45.4157 42.6152C47.3159 40.8958 47.9105 39.2831 48.0104 38.9765C48.4209 37.7212 48.435 34.023 48.3447 31.8434C48.326 31.3985 48.2983 30.6558 48.2646 29.747C48.1514 26.7124 47.9623 21.6334 47.8259 19.9523L47.7972 19.596C47.2662 12.9753 46.8815 10.9279 46.6428 10.4253C45.2355 9.82457 42.8837 9.51989 39.6483 9.51989C29.7933 9.51989 14.6468 12.4455 12.7848 13.0874ZM32.3755 48.0784C26.4901 48.0784 21.3861 45.9244 19.6751 42.7177C17.8358 39.268 15.8732 30.8386 15.763 30.3616L12.3767 17.4631C12.3365 17.3326 12.0409 16.359 11.8099 15.304C11.3214 13.0726 11.5618 12.4747 11.894 12.1604C12.0297 12.0319 12.2161 11.8558 15.1718 11.2335C17.1466 10.8179 19.6024 10.3697 22.0872 9.9713C26.0435 9.33685 33.5856 8.2725 39.6483 8.2725C43.158 8.2725 45.7266 8.6331 47.2825 9.34425C47.8744 9.61524 48.3167 10.4681 49.0408 19.4964L49.0692 19.8515C49.2078 21.5598 49.3975 26.6557 49.5111 29.7004C49.5447 30.6068 49.5725 31.3483 49.5909 31.7913C49.615 32.3698 49.8078 37.493 49.1959 39.3641C48.9779 40.0315 46.789 45.9353 37.2059 47.6404C35.574 47.9312 33.9486 48.0784 32.3755 48.0784Z" fill="black"/>
<path d="M24.5116 28.0381C23.4972 24.245 21.1893 11.6707 21.4388 10.7264C21.4388 10.7264 23.5032 9.79679 28.7491 9.29998C33.9953 8.80318 38.8295 9.12912 39.539 10.0589C39.9553 10.6047 40.4997 12.0947 40.8538 15.0872C40.8538 15.0872 41.6644 21.9388 41.4985 25.4253" fill="#8E7F66"/>
<path d="M24.5113 28.6619C24.2358 28.6619 23.9837 28.4781 23.9091 28.1992C23.0018 24.8067 20.5154 11.7793 20.8358 10.5673C20.8838 10.3857 21.0114 10.2351 21.1825 10.1579C21.2707 10.1183 23.4023 9.18011 28.6903 8.67948C32.1032 8.3564 38.8665 8.14946 40.0348 9.68097C40.6509 10.4887 41.1618 12.3827 41.4731 15.0142C41.5066 15.2959 42.288 21.9573 42.1214 25.4552C42.1052 25.7993 41.8125 26.0631 41.4691 26.0488C41.1247 26.0323 40.8592 25.7401 40.8755 25.3962C41.0373 22.001 40.2425 15.2288 40.2343 15.1609C39.8131 11.5994 39.1679 10.6015 39.0429 10.4373C38.6233 9.94503 34.8421 9.34953 28.8079 9.92113C24.9065 10.2906 22.8161 10.8968 22.0454 11.163C22.1568 13.3328 24.1416 24.2401 25.1142 27.8771C25.2033 28.2097 25.0057 28.5517 24.6728 28.6406C24.6191 28.6552 24.5646 28.6619 24.5113 28.6619Z" fill="black"/>
<path d="M25.2461 17.2256C25.009 17.2256 24.799 17.0564 24.7555 16.815C24.23 13.8951 23.7592 10.1468 23.7547 10.1095C23.7203 9.83611 23.9143 9.58663 24.1877 9.55246C24.4611 9.51733 24.7108 9.71209 24.7447 9.9857C24.7495 10.023 25.2167 13.7451 25.7376 16.638C25.7866 16.9092 25.6062 17.1685 25.3352 17.2175C25.3053 17.223 25.2754 17.2256 25.2461 17.2256Z" fill="black"/>
<path d="M27.6927 26.9375C27.485 26.9375 27.2915 26.8073 27.2205 26.6001C26.7184 25.1309 25.9055 22.2259 25.8708 22.103C25.797 21.8378 25.9518 21.5622 26.2173 21.4882C26.4828 21.4143 26.7579 21.5692 26.8322 21.8347C26.8405 21.8643 27.6717 24.8351 28.1649 26.2772C28.254 26.5377 28.1149 26.8216 27.854 26.911C27.8007 26.9291 27.7462 26.9375 27.6927 26.9375Z" fill="black"/>
<path d="M30.5037 26.4575C30.2755 26.4575 30.0695 26.3003 30.0174 26.068C30.0107 26.0386 29.3433 23.0573 28.5648 18.4417C27.7879 13.8352 27.1859 9.91573 27.1797 9.87654C27.1382 9.60436 27.3253 9.34939 27.5974 9.30781C27.8699 9.2667 28.1246 9.45286 28.1664 9.72528C28.1724 9.76447 28.7734 13.677 29.5488 18.2759C30.3223 22.8625 30.9845 25.82 30.991 25.8491C31.0514 26.118 30.8825 26.3849 30.6136 26.4453C30.5768 26.4535 30.5398 26.4575 30.5037 26.4575Z" fill="black"/>
<path d="M36.2579 25.666C36.0072 25.666 35.7912 25.478 35.7625 25.223C35.005 18.5064 33.257 9.52449 33.2396 9.4344C33.1868 9.16389 33.3633 8.90199 33.6336 8.84894C33.9041 8.79613 34.1663 8.97272 34.2188 9.24299C34.2368 9.33332 35.9922 18.3542 36.754 25.1111C36.7851 25.385 36.5881 25.6318 36.3143 25.6627C36.2954 25.6651 36.2763 25.666 36.2579 25.666Z" fill="black"/>
<path d="M33.3622 25.9941C33.1185 25.9941 32.9053 25.8152 32.869 25.5674C32.858 25.4914 31.7569 17.9642 31.3396 15.4346C31.2947 15.1626 31.4789 14.906 31.7506 14.8611C32.0223 14.8154 32.2792 15.0001 32.3242 15.2721C32.7428 17.8106 33.8454 25.347 33.8564 25.4225C33.8963 25.6954 33.7075 25.949 33.4349 25.9886C33.4105 25.9922 33.3861 25.9941 33.3622 25.9941Z" fill="black"/>
<path d="M27.0684 19.186C26.8504 19.186 26.6502 19.0422 26.5883 18.8221C26.5135 18.5568 26.6681 18.2813 26.9331 18.2065C27.813 17.9587 28.7328 17.7315 28.7416 17.7293C29.0095 17.6634 29.2797 17.8266 29.3457 18.0944C29.4116 18.3616 29.2482 18.6321 28.9808 18.6981C28.9717 18.7005 28.0675 18.9237 27.2039 19.1672C27.1585 19.1798 27.1131 19.186 27.0684 19.186Z" fill="black"/>
<path d="M38.3471 19.9365C38.0828 19.9365 37.8625 19.7291 37.8493 19.4624C37.6787 16.0221 36.2889 9.71533 36.275 9.652C36.2153 9.38269 36.3852 9.11648 36.654 9.05698C36.9229 8.99748 37.1895 9.16714 37.249 9.43598C37.3071 9.69788 38.6711 15.8892 38.8458 19.413C38.8596 19.6882 38.6474 19.9222 38.3722 19.936C38.3638 19.9363 38.3554 19.9365 38.3471 19.9365Z" fill="black"/>
<path d="M41.428 29.6797L41.3116 31.9312C41.3116 31.9312 39.0811 33.0039 38.5024 32.6302C38.4754 32.612 36.9754 30.7147 36.9754 30.7147L35.7373 33.3786L33.6892 33.89L31.8735 31.5582L30.4804 34.816C30.4804 34.816 27.7237 35.1463 27.1968 34.9995C27.1968 34.9995 25.5236 31.7969 24.5094 28.0046C24.5094 28.0046 25.9869 27.0112 29.167 26.3192C32.3467 25.6274 39.6606 24.9951 41.5346 25.2835C41.5346 25.2835 41.4352 29.0505 41.428 29.6797Z" fill="#DEB972"/>
<path d="M27.6004 34.413C27.6235 34.4135 27.6486 34.4137 27.6761 34.4137C28.3395 34.4137 29.4743 34.2998 30.0493 34.2371L31.3 31.3134C31.387 31.1103 31.5743 30.9686 31.7932 30.9402C32.0123 30.9124 32.2298 31.0013 32.3655 31.1755L33.9319 33.1869L35.2971 32.8457L36.4095 30.4522C36.5008 30.2558 36.6872 30.1208 36.9022 30.0954C37.1171 30.0703 37.33 30.158 37.4643 30.3279C37.909 30.8907 38.5953 31.756 38.8613 32.0858C39.2821 32.0836 40.1101 31.7816 40.7084 31.5211L40.8045 29.6598C40.8107 29.1532 40.8678 26.9294 40.8958 25.8517C40.702 25.8424 40.458 25.8357 40.1526 25.8357C37.2643 25.8357 31.787 26.3877 29.2996 26.9292C27.1827 27.3894 25.8473 27.9899 25.2396 28.3063C26.0469 31.1378 27.1944 33.5864 27.6004 34.413ZM27.6761 35.6611C27.3788 35.6611 27.1795 35.6425 27.029 35.6002C26.8632 35.5538 26.7238 35.441 26.644 35.2886C26.5743 35.155 24.9271 31.9811 23.9069 28.166C23.8379 27.9089 23.9402 27.636 24.1612 27.4876C24.2257 27.4441 25.7749 26.4197 29.0344 25.7102C31.6348 25.1443 37.1422 24.5885 40.1526 24.5885C40.793 24.5885 41.2901 24.6153 41.6294 24.6674C41.9401 24.7152 42.1664 24.9861 42.158 25.3001C42.1573 25.3377 42.0586 29.0698 42.0517 29.6868C42.0517 29.6954 42.0514 29.7038 42.0509 29.7119L41.9346 31.9634C41.9231 32.1911 41.7876 32.3947 41.5821 32.4937C41.4033 32.5795 39.8083 33.3331 38.8562 33.3331C38.5767 33.3331 38.3504 33.2748 38.1642 33.1544C38.0655 33.0887 38.05 33.0784 37.1142 31.896L36.3029 33.6417C36.2236 33.8123 36.0711 33.9384 35.8883 33.9838L33.8402 34.4957C33.6007 34.5554 33.3486 34.4682 33.1969 34.2737L32.0312 32.7759L31.0536 35.0613C30.9657 35.2661 30.7757 35.4088 30.5544 35.4356C30.4775 35.4444 28.6618 35.6611 27.6761 35.6611Z" fill="black"/>
<path d="M28.8152 42.9351C26.5549 42.9351 24.7254 41.4423 24.6379 41.3694C24.3461 41.1278 24.3058 40.695 24.5476 40.4035C24.7892 40.1124 25.2207 40.0716 25.5125 40.3122C25.5323 40.3289 27.505 41.924 29.5541 41.4862C32.2503 40.9084 34.3864 38.7085 34.4077 38.686C34.6686 38.4139 35.1007 38.4038 35.3745 38.6633C35.457 38.7405 37.464 40.5817 39.9385 39.7602C42.0511 39.0583 42.6194 38.0095 42.6247 37.999C42.7924 37.6592 43.2039 37.5204 43.5435 37.6884C43.8833 37.8559 44.0224 38.2676 43.8544 38.6074C43.7755 38.7663 43.0099 40.1858 40.371 41.0623C39.7688 41.2623 39.19 41.3443 38.6464 41.3443C36.9751 41.3445 35.6328 40.5705 34.9401 40.0704C34.0992 40.8217 32.1834 42.3259 29.8413 42.8278C29.4927 42.9026 29.1491 42.9351 28.8152 42.9351Z" fill="black"/>
<path d="M12.7463 16.8519L8.76904 17.3169L12.7463 16.8519Z" fill="black"/>
<path d="M8.76791 18.0032C8.42476 18.0032 8.12821 17.7458 8.08734 17.3967C8.04337 17.0206 8.31269 16.6796 8.68905 16.6356L12.6664 16.1706C13.0425 16.1264 13.3835 16.3959 13.4275 16.7723C13.4714 17.1486 13.2021 17.4894 12.8257 17.5334L8.84844 17.9984C8.82144 18.0017 8.79444 18.0032 8.76791 18.0032Z" fill="black"/>
<path d="M16.802 30.5891C16.483 30.5891 16.1972 30.3652 16.1305 30.0405C16.0545 29.6693 16.2937 29.3068 16.6649 29.2306L19.3979 28.6705C19.7692 28.5945 20.1315 28.8334 20.2075 29.2043C20.2837 29.5759 20.0445 29.9382 19.6734 30.0144L16.9406 30.575C16.894 30.5841 16.8477 30.5891 16.802 30.5891Z" fill="black"/>
<path d="M18.1379 35.4333C17.8478 35.4333 17.5783 35.2477 17.4848 34.9566C17.3692 34.5958 17.5678 34.2094 17.9288 34.094L20.2862 33.3376C20.647 33.2222 21.0334 33.4208 21.1491 33.7816C21.2648 34.1425 21.0659 34.5286 20.7051 34.6445L18.3477 35.4004C18.278 35.4224 18.2075 35.4333 18.1379 35.4333Z" fill="black"/>
<path d="M19.2804 39.8755C18.9865 39.8755 18.7145 39.6848 18.6244 39.3892C18.514 39.0265 18.7183 38.6434 19.0809 38.533C19.093 38.5292 20.3108 38.1581 21.5113 37.749C21.8698 37.6268 22.2598 37.8185 22.3819 38.1772C22.5042 38.5359 22.3124 38.9254 21.9539 39.0477C20.7314 39.464 19.4928 39.8416 19.4804 39.8454C19.414 39.8659 19.3466 39.8755 19.2804 39.8755Z" fill="black"/>
<path d="M45.5902 26.7896C45.242 26.7896 44.944 26.5257 44.9087 26.1721C44.8707 25.7955 45.1455 25.459 45.5223 25.421C45.5362 25.4198 46.9095 25.2805 48.23 25.0571C48.6035 24.9933 48.9577 25.2451 49.0207 25.6186C49.0841 25.9924 48.8324 26.3465 48.4589 26.4096C47.0913 26.6409 45.7173 26.7805 45.6597 26.7862C45.6363 26.7884 45.6131 26.7896 45.5902 26.7896Z" fill="black"/>
<path d="M48.5619 31.6328C48.5306 31.6328 48.4985 31.6304 48.4665 31.6264C47.8598 31.542 45.9015 31.3566 45.8819 31.3544C45.5048 31.3191 45.2279 30.9843 45.2635 30.6069C45.2991 30.2301 45.6334 29.9548 46.0109 29.9887C46.0927 29.9961 48.0192 30.1787 48.6555 30.2674C49.0309 30.3192 49.2929 30.6657 49.2405 31.0411C49.1927 31.3843 48.8988 31.6328 48.5619 31.6328Z" fill="black"/>
<path d="M48.6324 37.1414C48.5581 37.1414 48.4824 37.1289 48.408 37.1036C47.5784 36.8161 46.0528 36.3712 46.0375 36.3669C45.6738 36.2605 45.4647 35.8799 45.5706 35.5162C45.6767 35.1525 46.0571 34.9436 46.4213 35.0495C46.4851 35.0681 47.9953 35.5085 48.8568 35.8067C49.2148 35.9308 49.4045 36.3215 49.2807 36.6794C49.1825 36.9633 48.9166 37.1414 48.6324 37.1414Z" fill="black"/>
<path d="M43.6865 22.3113C43.3947 22.3113 43.1486 22.0859 43.1273 21.7903C43.113 21.5913 43.0128 19.8165 43.9006 18.8573C44.2588 18.4699 44.7365 18.2639 45.2813 18.2611C45.846 18.2639 46.3414 18.464 46.7072 18.8566C47.5553 19.7675 47.4583 21.3815 47.4444 21.5626C47.4208 21.8718 47.1505 22.1031 46.842 22.0795C46.533 22.0558 46.3012 21.786 46.3251 21.4768C46.3509 21.1203 46.3225 20.0892 45.8842 19.6205C45.7322 19.4576 45.5444 19.3792 45.2871 19.3837C45.0512 19.3849 44.8725 19.46 44.7245 19.6198C44.249 20.1338 44.2198 21.3308 44.2469 21.7096C44.2691 22.019 44.0366 22.2876 43.7273 22.3098C43.7137 22.3108 43.7001 22.3113 43.6865 22.3113Z" fill="black"/>
<path d="M20.7512 23.9593C20.7512 23.9593 20.7488 23.9359 20.7443 23.8928C20.7393 23.8465 20.7302 23.776 20.7158 23.6866C20.6869 23.5083 20.6377 23.2498 20.5459 22.9599C20.4549 22.6732 20.3163 22.346 20.1175 22.104C20.0186 21.9835 19.9067 21.8951 19.792 21.8406C19.6778 21.7845 19.5511 21.7687 19.403 21.7802L19.3473 21.7852L19.3406 21.7859H19.3387C19.3898 21.7775 19.3514 21.784 19.3621 21.7823L19.3571 21.7833L19.3361 21.7873L19.2943 21.7955L19.2106 21.8117C19.1908 21.8174 19.1836 21.8222 19.1698 21.826C19.1569 21.8311 19.1456 21.8327 19.131 21.8385L19.0844 21.8588C19.0512 21.8695 19.0266 21.8894 18.9977 21.9035C18.889 21.968 18.8075 22.0619 18.7368 22.1797C18.6675 22.2978 18.6194 22.4447 18.5869 22.5941C18.5547 22.7444 18.5389 22.8988 18.5334 23.0445C18.5219 23.3375 18.5508 23.5937 18.5714 23.7683C18.5939 23.9342 18.6065 24.029 18.6065 24.029L18.6177 24.1129C18.6584 24.4147 18.4467 24.6922 18.1451 24.7326C17.8471 24.7727 17.5725 24.5662 17.5269 24.2704C17.5252 24.2592 17.4891 24.1332 17.4593 23.9146C17.4299 23.6955 17.4026 23.3824 17.421 22.9934C17.4315 22.7986 17.4547 22.5843 17.5075 22.3525C17.5618 22.1221 17.6423 21.8714 17.7912 21.6224C17.9389 21.3754 18.1597 21.1297 18.4397 20.9686C18.5097 20.9309 18.5798 20.8888 18.6534 20.8618L18.7633 20.8176C18.8015 20.8035 18.8455 20.7918 18.8868 20.7799C18.927 20.7686 18.974 20.7557 19.0092 20.7478L19.0933 20.7325L19.1351 20.7249L19.1559 20.7213L19.1612 20.7204L19.1896 20.7156L19.1934 20.7151L19.2077 20.7139L19.3217 20.7039C19.6255 20.6807 19.9657 20.7297 20.2532 20.8752C20.5421 21.016 20.7715 21.2229 20.94 21.4337C21.1094 21.6459 21.2301 21.8626 21.3254 22.0681C21.4203 22.2741 21.4896 22.4705 21.5446 22.6517C21.6535 23.0142 21.7066 23.3172 21.7381 23.5315C21.7537 23.6391 21.7637 23.7239 21.7694 23.7836C21.7749 23.8462 21.778 23.8799 21.778 23.8799C21.8029 24.1631 21.5938 24.4131 21.3106 24.4382C21.0303 24.463 20.7825 24.258 20.7534 23.9791L20.7512 23.9593Z" fill="black"/>
<path d="M42.3372 14.9436C42.3372 14.9436 42.379 14.8941 42.4521 14.8073C42.4624 14.7954 42.4681 14.787 42.4832 14.7705C42.5001 14.7526 42.5178 14.7342 42.5365 14.7146C42.574 14.6757 42.6151 14.6346 42.66 14.5916C42.682 14.5703 42.7057 14.5471 42.7291 14.5263C42.7511 14.5094 42.7742 14.4919 42.7977 14.4737C42.845 14.4379 42.8944 14.4004 42.9461 14.361C42.9981 14.3227 43.0562 14.2912 43.1145 14.2544C43.1735 14.2188 43.2335 14.181 43.2997 14.1526C43.3654 14.1222 43.4326 14.0914 43.5016 14.0596C43.5719 14.0336 43.6455 14.0099 43.7191 13.9846C43.7922 13.9566 43.8699 13.9399 43.948 13.922C44.0264 13.9048 44.1045 13.8828 44.1867 13.8761C44.268 13.867 44.3502 13.8572 44.4326 13.8479C44.5156 13.8469 44.5992 13.8462 44.6826 13.8455C44.766 13.8417 44.8494 13.857 44.9323 13.8646C45.0152 13.8732 45.0982 13.8809 45.1784 13.9024C45.259 13.921 45.3386 13.9399 45.4174 13.9583C45.4936 13.9855 45.5689 14.0125 45.6432 14.0386C45.68 14.0525 45.7166 14.0661 45.7527 14.0797C45.7873 14.0969 45.8213 14.1139 45.855 14.1308C45.9223 14.1648 45.9881 14.198 46.0523 14.2305C46.1744 14.3034 46.2844 14.3808 46.3876 14.4503C46.481 14.5297 46.5663 14.6023 46.6423 14.6666C46.72 14.7304 46.7711 14.7964 46.8218 14.8461C46.9186 14.9483 46.9743 15.0066 46.9743 15.0066C47.2364 15.2824 47.2254 15.7185 46.9496 15.9809C46.6736 16.243 46.2375 16.2318 45.9754 15.956C45.9544 15.9338 45.9348 15.9104 45.9171 15.8863L45.882 15.8368C45.882 15.8368 45.853 15.7969 45.8029 15.7269C45.7761 15.6944 45.75 15.6442 45.7085 15.604C45.6678 15.562 45.6222 15.5144 45.5723 15.4626C45.5166 15.42 45.4566 15.3737 45.393 15.3247C45.3589 15.3053 45.3237 15.2853 45.2879 15.2647L45.2334 15.2327L45.1744 15.2098C45.135 15.1935 45.0948 15.1775 45.0539 15.1605C45.0112 15.1505 44.9679 15.1405 44.9247 15.1299C44.8817 15.1158 44.8363 15.113 44.7913 15.1082C44.7459 15.1053 44.701 15.0936 44.6546 15.0984L44.517 15.1003C44.4714 15.107 44.4262 15.1132 44.3813 15.1197C44.3356 15.1225 44.2926 15.1395 44.2494 15.1498C44.2061 15.1612 44.1626 15.1699 44.1234 15.1885C44.0833 15.2047 44.0441 15.2208 44.0054 15.2363C43.9695 15.2561 43.9342 15.2755 43.8998 15.2944C43.8637 15.3106 43.8348 15.3343 43.8054 15.3548C43.7764 15.3763 43.7456 15.3933 43.721 15.4148C43.6971 15.4365 43.6747 15.4576 43.6529 15.4774C43.6422 15.4872 43.6316 15.4968 43.6214 15.5061C43.6142 15.5144 43.6106 15.5214 43.6051 15.5283C43.5948 15.5419 43.5848 15.5536 43.5748 15.5641C43.5695 15.5689 43.5647 15.5737 43.5599 15.5785C43.554 15.5854 43.5435 15.6019 43.5365 15.6127C43.4744 15.7073 43.4388 15.7618 43.4388 15.7618L43.4381 15.763C43.2302 16.0808 42.8043 16.1702 42.4865 15.9625C42.1687 15.7548 42.0793 15.3288 42.2872 15.0109C42.3018 14.9882 42.3202 14.9641 42.3372 14.9436Z" fill="black"/>
<path d="M19.2758 17.9551C19.2758 17.9551 19.2261 17.9135 19.1391 17.8406C19.1291 17.833 19.1143 17.8198 19.1066 17.8151C19.1009 17.8117 19.0947 17.8089 19.0882 17.8055C19.0758 17.7986 19.0626 17.7902 19.049 17.7804C19.0418 17.7752 19.0361 17.7697 19.0268 17.7639C19.0144 17.758 19.0015 17.752 18.9883 17.7458C18.962 17.7329 18.9341 17.7195 18.9052 17.7054C18.8755 17.692 18.8406 17.6848 18.8072 17.6724C18.7728 17.6614 18.7381 17.6473 18.6992 17.6423C18.6607 17.6344 18.6213 17.6258 18.5811 17.6172C18.5395 17.6136 18.4975 17.6098 18.4542 17.6062C18.4112 17.5995 18.3673 17.6041 18.3226 17.606C18.2781 17.6084 18.232 17.6048 18.1876 17.6153C18.1429 17.6222 18.0975 17.6294 18.0518 17.6366L17.9197 17.6748C17.8738 17.6834 17.8348 17.708 17.7921 17.7238C17.7503 17.7415 17.7075 17.7572 17.6707 17.7833C17.6322 17.8057 17.5937 17.8282 17.556 17.8504C17.5218 17.8782 17.4881 17.9056 17.4549 17.9324L17.4052 17.9716L17.3624 18.0179C17.334 18.0481 17.3065 18.0774 17.2795 18.1061C17.2329 18.1714 17.1887 18.2333 17.1481 18.2901C17.1153 18.3542 17.0855 18.413 17.0589 18.465C17.031 18.5155 17.0205 18.5711 17.0042 18.6101C16.9765 18.6918 16.9607 18.7382 16.9607 18.7382L16.9426 18.792C16.8204 19.1523 16.4293 19.3456 16.0689 19.2233C15.7083 19.1012 15.5152 18.71 15.6373 18.3494C15.6474 18.3205 15.6608 18.2887 15.6739 18.2619C15.6739 18.2619 15.7102 18.19 15.7733 18.0641C15.807 18.0017 15.8369 17.9236 15.8928 17.8402C15.9466 17.7563 16.007 17.6619 16.0732 17.5589C16.1518 17.4624 16.2343 17.3563 16.3301 17.2511C16.382 17.2014 16.4352 17.1503 16.4897 17.0982C16.5172 17.0724 16.5447 17.0458 16.5724 17.0196C16.6032 16.9961 16.6343 16.9725 16.6656 16.9486C16.7287 16.9017 16.793 16.8542 16.8582 16.8059C16.9282 16.7653 16.9992 16.7242 17.0706 16.6826C17.1411 16.6389 17.2181 16.6073 17.295 16.5751C17.3722 16.5438 17.4475 16.5048 17.5285 16.484C17.6085 16.4606 17.6886 16.4367 17.7684 16.4135C17.8499 16.3987 17.9311 16.3839 18.0114 16.3691C18.092 16.3517 18.1732 16.35 18.2533 16.3433C18.3333 16.3378 18.4124 16.3313 18.4906 16.3368C18.5685 16.3395 18.6454 16.3407 18.7207 16.3452C18.7957 16.3555 18.8691 16.3655 18.9405 16.3753C19.0122 16.3832 19.0808 16.4021 19.1475 16.4188C19.2139 16.4367 19.2787 16.4506 19.3398 16.4719C19.4005 16.4943 19.4591 16.5161 19.5145 16.5364C19.5422 16.5466 19.5695 16.5569 19.5955 16.567C19.6237 16.5796 19.6534 16.5952 19.6806 16.609C19.736 16.637 19.7874 16.6647 19.8345 16.6907C19.8579 16.7044 19.8804 16.7168 19.9019 16.729C19.9212 16.7404 19.9291 16.7467 19.9423 16.7553C20.0376 16.8167 20.0921 16.8523 20.0921 16.8523C20.4106 17.0585 20.5014 17.4841 20.2952 17.8026C20.0887 18.1212 19.6632 18.2125 19.3444 18.006C19.3217 17.9912 19.3004 17.9754 19.2801 17.9587L19.2758 17.9551Z" fill="black"/>
<path d="M43.0618 60.1145C43.0618 60.5265 42.728 60.8604 42.316 60.8604C41.9043 60.8604 41.5702 60.5265 41.5702 60.1145C41.5702 59.7026 41.9043 59.3687 42.316 59.3687C42.728 59.3687 43.0618 59.7026 43.0618 60.1145Z" fill="white"/>
<path d="M42.3159 58.7451C41.561 58.7451 40.9467 59.3595 40.9467 60.1146C40.9467 60.8698 41.561 61.4844 42.3159 61.4844C43.071 61.4844 43.6854 60.8698 43.6854 60.1146C43.6854 59.3595 43.071 58.7451 42.3159 58.7451ZM42.3159 59.3688C42.7279 59.3688 43.0617 59.7029 43.0617 60.1146C43.0617 60.5266 42.7279 60.8607 42.3159 60.8607C41.9042 60.8607 41.5701 60.5266 41.5701 60.1146C41.5701 59.7029 41.9042 59.3688 42.3159 59.3688Z" fill="black"/>
<path d="M43.0384 55.771C43.0384 56.1828 42.7048 56.5161 42.2926 56.5161C41.8811 56.5161 41.5472 56.1828 41.5472 55.771C41.5472 55.3588 41.8811 55.0252 42.2926 55.0252C42.7048 55.0252 43.0384 55.3588 43.0384 55.771Z" fill="white"/>
<path d="M42.2927 54.4016C41.5378 54.4016 40.9237 55.016 40.9237 55.7711C40.9237 56.526 41.5378 57.1401 42.2927 57.1401C43.0478 57.1401 43.6622 56.526 43.6622 55.7711C43.6622 55.016 43.0478 54.4016 42.2927 54.4016ZM42.2927 55.0253C42.7047 55.0253 43.0385 55.3591 43.0385 55.7711C43.0385 56.1828 42.7047 56.5164 42.2927 56.5164C41.8812 56.5164 41.5472 56.1828 41.5472 55.7711C41.5472 55.3591 41.8812 55.0253 42.2927 55.0253Z" fill="black"/>
<path d="M67.1998 18.1543C66.8768 18.1543 66.6036 17.9053 66.5788 17.5777C66.3391 14.432 65.193 11.9752 63.1714 10.2752C61.6554 9.00055 60.1815 8.64521 60.1667 8.64163C59.8321 8.56325 59.623 8.22894 59.7002 7.89391C59.7774 7.55912 60.1103 7.34931 60.4453 7.42578C60.5153 7.44179 62.1807 7.83274 63.9218 9.27703C65.5171 10.5999 67.4885 13.0978 67.8223 17.4833C67.8486 17.8267 67.5913 18.1263 67.2479 18.1526C67.2316 18.1538 67.2159 18.1543 67.1998 18.1543Z" fill="black"/>
<path d="M69.4555 14.8469C69.1324 14.8469 68.8592 14.5979 68.8342 14.2703C68.3892 8.42119 64.0219 7.32602 63.836 7.28229C63.5015 7.20367 63.2928 6.86912 63.3703 6.53433C63.4477 6.19954 63.7803 5.99045 64.1151 6.06668C64.172 6.07958 65.5243 6.39693 66.9313 7.56426C68.2188 8.63171 69.8094 10.6452 70.0777 14.1757C70.1042 14.5193 69.8469 14.819 69.5035 14.845C69.4872 14.8464 69.4712 14.8469 69.4555 14.8469Z" fill="black"/>
<path d="M3.50699 55.9392C3.18033 55.9392 2.906 55.6857 2.88521 55.3554C2.87446 55.1815 2.65533 51.0732 5.91717 48.8898C6.20345 48.6981 6.59081 48.7751 6.78246 49.0611C6.97411 49.3476 6.8974 49.7345 6.61112 49.9264C3.95338 51.7052 4.1283 55.2431 4.13021 55.2787C4.15028 55.6221 3.88862 55.9172 3.54547 55.938C3.53256 55.9387 3.51966 55.9392 3.50699 55.9392Z" fill="black"/>
<path d="M0.630875 56.0291C0.303974 56.0291 0.0296442 55.7753 0.00909336 55.445C-0.00572234 55.2125 -0.298691 49.7204 4.05426 46.807C4.34054 46.6156 4.7279 46.6923 4.91954 46.9785C5.11119 47.2648 5.03425 47.6522 4.74821 47.8441C0.999834 50.3522 1.25098 55.3179 1.25385 55.3674C1.2744 55.711 1.01298 56.0068 0.669826 56.0279C0.656444 56.0286 0.64354 56.0291 0.630875 56.0291Z" fill="black"/>
<path d="M17.2973 62.1909C17.927 60.045 18.2952 58.5737 19.3699 55.0545C19.3699 55.0545 23.2222 44.4787 18.8647 42.2405C18.8647 42.2405 14.0544 39.3018 8.81534 52.0875C8.81534 52.0875 7.60738 54.6717 6.38293 58.0126C6.38293 58.0126 10.0047 61.8169 17.2973 62.1909Z" fill="white"/>
<path d="M49.021 47.1048L47.7413 47.4757L46.0922 50.1047L46.0726 50.1234L49.058 52.3584L50.5219 51.934L47.4326 49.7284L49.021 47.1048Z" fill="black"/>
<path d="M49.0209 46.5429C49.0063 46.5429 48.9915 46.5434 48.9767 46.5448C48.9336 46.5479 48.8918 46.5565 48.8522 46.569L47.5852 46.936C47.4526 46.9743 47.339 47.0598 47.2657 47.1767L45.6481 49.7556C45.5528 49.8657 45.5033 50.0096 45.5124 50.1568C45.5222 50.3212 45.6044 50.4734 45.7363 50.5721L48.7214 52.8076C48.8197 52.8807 48.9379 52.9194 49.0579 52.9194C49.1102 52.9194 49.1628 52.912 49.2142 52.8972L50.6783 52.4726C50.8848 52.4124 51.0389 52.2398 51.075 52.0279C51.1113 51.8154 51.0229 51.6018 50.848 51.4766L48.1821 49.5735L49.4923 47.4094C49.5492 47.3215 49.5824 47.2166 49.5824 47.1045C49.5824 46.8008 49.3416 46.5532 49.0405 46.5432C49.0338 46.5429 49.0276 46.5429 49.0209 46.5429ZM49.0209 47.1045L47.4325 49.7281L50.5218 51.9337L49.0579 52.3581L46.0725 50.1228L46.0921 50.1042L47.7412 47.4751L49.0209 47.1045ZM49.0209 47.1045H49.0213H49.0209Z" fill="black"/>
<path d="M43.8833 48.6074C43.8833 48.6074 44.2147 48.5859 44.3545 49.0705L45.5888 53.3267L46.8574 52.9591L45.4621 48.1488L43.8833 48.6074Z" fill="black"/>
<path d="M45.4624 47.5869C45.4098 47.5869 45.3573 47.5943 45.3059 47.6094L43.7268 48.0682C43.4482 48.1492 43.2678 48.4298 43.3227 48.7144C43.3696 48.9569 43.5603 49.1352 43.7937 49.1655C43.8004 49.1796 43.8078 49.1997 43.8157 49.226L45.0495 53.4824C45.1207 53.7281 45.3451 53.8877 45.5886 53.8877C45.6402 53.8877 45.6925 53.8805 45.7449 53.8652L47.0137 53.4977C47.1566 53.4564 47.2773 53.3598 47.3492 53.2293C47.4212 53.0989 47.4381 52.9455 47.3968 52.8023L46.0015 47.992C45.9602 47.8491 45.8634 47.7284 45.7329 47.6562C45.649 47.6106 45.5561 47.5869 45.4624 47.5869ZM45.4624 48.1485L46.8575 52.9586L45.5888 53.3264L44.3548 49.0702C44.2262 48.6255 43.9366 48.6071 43.8898 48.6071H43.8836L45.4624 48.1485Z" fill="black"/>
<path d="M49.021 47.1048L47.7413 47.4757L46.0922 50.1047L46.0726 50.1234L49.058 52.3584L50.5219 51.934L47.4326 49.7284L49.021 47.1048Z" fill="white"/>
<path d="M43.8833 48.6074C43.8833 48.6074 44.2147 48.5859 44.3545 49.0705L45.5888 53.3267L46.8574 52.9591L45.4621 48.1488L43.8833 48.6074Z" fill="white"/>
<mask id="mask0_1140_20733" style="mask-type:luminance" maskUnits="userSpaceOnUse" x="6" y="41" width="15" height="22">
<path d="M8.81552 52.0873C8.81552 52.0873 7.60852 54.9152 6.4873 57.8568L17.2975 62.1909C17.9269 60.0448 18.2954 58.5737 19.37 55.0543C19.37 55.0543 23.2224 44.4784 18.8646 42.2403C18.8646 42.2403 18.3874 41.949 17.5704 41.9488C15.7925 41.9488 12.4047 43.3276 8.81552 52.0873Z" fill="white"/>
</mask>
<g mask="url(#mask0_1140_20733)">
<path d="M12.3614 45.4733C10.112 45.4227 8.24789 47.2046 8.19723 49.4557C8.14633 51.706 9.92756 53.5711 12.1769 53.6222C14.426 53.6729 16.2897 51.8905 16.3411 49.6399C16.3918 47.3896 14.61 45.5238 12.3614 45.4733ZM12.18 53.4832C10.0055 53.4337 8.28636 51.6343 8.33535 49.4588C8.38482 47.2828 10.1837 45.5577 12.3581 45.6069C14.5326 45.6561 16.2517 47.4608 16.2023 49.637C16.153 51.8123 14.3546 53.5326 12.18 53.4832Z" fill="#D11317"/>
</g>
<mask id="mask1_1140_20733" style="mask-type:luminance" maskUnits="userSpaceOnUse" x="6" y="41" width="15" height="22">
<path d="M8.81552 52.0873C8.81552 52.0873 7.60852 54.9152 6.4873 57.8568L17.2975 62.1909C17.9269 60.0448 18.2954 58.5737 19.37 55.0543C19.37 55.0543 23.2224 44.4784 18.8646 42.2403C18.8646 42.2403 18.3874 41.949 17.5704 41.9488C15.7925 41.9488 12.4047 43.3276 8.81552 52.0873Z" fill="white"/>
</mask>
<g mask="url(#mask1_1140_20733)">
<path d="M10.7418 49.8865C10.7124 49.7635 10.6993 49.6342 10.7024 49.5066C10.7131 49.0217 10.9468 48.5947 11.2945 48.3196C11.2317 48.2594 11.095 48.1815 10.9105 48.3005C10.8842 48.3163 10.8462 48.3203 10.8147 48.3089C10.8094 48.3036 10.5719 48.2023 10.3869 48.3794C10.3105 48.4523 10.2823 48.5051 10.2548 48.5521C10.2151 48.637 10.1714 48.7001 10.0529 48.7608C10.1088 48.8853 10.1014 48.9598 10.0832 49.0552C10.0713 49.1085 10.0593 49.167 10.0727 49.2686C10.1102 49.5254 10.3537 49.595 10.3642 49.5952C10.396 49.6014 10.4223 49.6287 10.4376 49.6612C10.5074 49.86 10.6565 49.8903 10.7418 49.8865ZM13.8256 50.5167C13.8889 50.2997 13.7742 50.1902 13.7006 50.1456C13.475 50.6847 12.9493 51.0675 12.3407 51.1021C12.36 51.1822 12.4262 51.3227 12.6394 51.3325C12.6767 51.3332 12.7027 51.3559 12.7185 51.3827C12.7233 51.3932 12.8568 51.6149 13.1135 51.5781C13.2153 51.5643 13.2693 51.5392 13.3176 51.5139C13.4041 51.473 13.4741 51.4426 13.607 51.4668C13.6309 51.3339 13.6856 51.2763 13.751 51.2137C13.7945 51.1719 13.8385 51.1306 13.8885 51.0407C14.0108 50.8144 13.85 50.6134 13.8447 50.6077C13.8187 50.5807 13.8139 50.5487 13.8256 50.5167ZM10.8013 50.0906C10.7253 50.1315 10.6166 50.2409 10.6701 50.4502C10.6804 50.4772 10.6689 50.5145 10.6472 50.5408C10.6414 50.5468 10.4718 50.7341 10.5836 50.9714C10.6292 51.0632 10.6715 51.1071 10.7079 51.1449C10.7757 51.2156 10.8221 51.2754 10.8457 51.4097C10.9741 51.3906 11.0481 51.4247 11.1325 51.4689C11.1798 51.4971 11.2324 51.5253 11.3335 51.5435C11.5887 51.5863 11.7261 51.376 11.7321 51.3652C11.7483 51.3394 11.781 51.3186 11.8128 51.3193C12.0319 51.3138 12.1041 51.1815 12.1275 51.0971C11.5153 51.0407 11.0073 50.6395 10.8013 50.0906ZM13.6442 49.573C13.6619 48.8109 13.0571 48.1784 12.295 48.1607C11.5332 48.1438 10.8952 48.7481 10.8782 49.5109C10.8613 50.2734 11.4704 50.9064 12.2329 50.9231C12.9947 50.9408 13.6268 50.3355 13.6442 49.573ZM12.5323 48.5347L12.572 48.4128L12.6444 48.5211L12.7668 48.5239L12.6901 48.6183L12.7247 48.7419L12.6086 48.6962L12.5053 48.7686L12.5082 48.6408L12.4088 48.5639L12.5323 48.5347ZM11.966 49.7386L12.5579 49.7517C12.5792 49.7522 12.5949 49.7682 12.5942 49.79L12.5933 49.8327C12.5928 49.8535 12.5761 49.8746 12.555 49.8741L11.9631 49.8609C11.9416 49.8605 11.9266 49.839 11.927 49.8177L11.9282 49.7747C11.9285 49.7532 11.9447 49.7376 11.966 49.7386ZM11.9638 49.5998L11.9648 49.557C11.9655 49.5352 11.9873 49.5197 12.0085 49.5207L12.5249 49.5321C12.5467 49.5326 12.5675 49.5489 12.5672 49.5706L12.5663 49.6131C12.5656 49.6342 12.544 49.6552 12.5228 49.6542L12.0057 49.643C11.9842 49.6425 11.9636 49.6205 11.9638 49.5998ZM12.5966 49.4375L11.9414 49.4229C11.9199 49.4227 11.8993 49.4005 11.8996 49.3792L11.9005 49.3369C11.901 49.3154 11.9225 49.2994 11.9442 49.3001L12.5995 49.3149C12.6205 49.3154 12.642 49.3321 12.6408 49.3531L12.6403 49.3962C12.6399 49.4174 12.6181 49.4377 12.5966 49.4375ZM11.9077 49.9556L12.6059 49.9716C12.6274 49.9718 12.643 49.9881 12.6425 50.0101L12.642 50.0519C12.6408 50.0739 12.6248 50.0942 12.6033 50.0942L11.9051 50.0786C11.8838 50.0784 11.8683 50.0564 11.8683 50.0349L11.8699 49.9921C11.8702 49.9706 11.8867 49.9549 11.9077 49.9556ZM12.6047 49.0965C12.6258 49.0967 12.647 49.1137 12.6463 49.1347L12.6451 49.177C12.6447 49.1985 12.6227 49.2191 12.6016 49.2193L11.9457 49.2043C11.9251 49.204 11.9041 49.1818 11.9046 49.1603L11.9055 49.1182C11.9055 49.0965 11.9273 49.0812 11.949 49.0814L12.6047 49.0965ZM11.9459 48.5053L12.0229 48.4004L12.0575 48.5239L12.1796 48.5584L12.0766 48.6308L12.074 48.7588L11.9741 48.6819L11.8558 48.7228L11.896 48.6002L11.8233 48.5022L11.9459 48.5053ZM11.7689 50.2084C11.7696 50.1871 11.7911 50.1718 11.8121 50.1721L12.6917 50.1919C12.713 50.1924 12.734 50.2089 12.7335 50.2301L12.7326 50.2734C12.7319 50.2942 12.7106 50.3157 12.6891 50.315L11.8095 50.2951C11.7882 50.2942 11.7677 50.2727 11.7679 50.2509L11.7689 50.2084ZM11.7053 50.4259C11.7058 50.4048 11.7223 50.3893 11.743 50.3895L12.7507 50.4125C12.772 50.413 12.7878 50.4292 12.7873 50.4495L12.7864 50.493C12.7856 50.5148 12.7692 50.5358 12.7481 50.5348L11.7404 50.5121C11.7196 50.5114 11.7039 50.4899 11.7041 50.4686L11.7053 50.4259ZM11.3605 49.6502L11.2606 49.5728L11.1425 49.6129L11.1824 49.4908L11.11 49.3931L11.2324 49.3962L11.3098 49.2915L11.3442 49.4146L11.4663 49.4497L11.3633 49.5223L11.3605 49.6502ZM11.5645 49.0994L11.4654 49.0227L11.3416 49.0623L11.3867 48.9464L11.3091 48.8427L11.4372 48.8458L11.5089 48.7409L11.5485 48.8642L11.6704 48.9046L11.5624 48.9765L11.5645 49.0994ZM12.8241 50.7126C12.8232 50.7339 12.8071 50.7554 12.7856 50.7542L11.6933 50.7293C11.6714 50.7291 11.6563 50.7076 11.6568 50.6863L11.6575 50.649C11.6585 50.6223 11.6745 50.6065 11.6957 50.607L12.788 50.6318C12.8095 50.6323 12.8258 50.6486 12.8251 50.6749L12.8241 50.7126ZM12.902 48.9321L13.0248 48.8974L13.0702 48.7765L13.1372 48.8845L13.2652 48.8869L13.1828 48.9866L13.2234 49.1049L13.1015 49.0595L12.9986 49.1321L13.0064 49.0098L12.902 48.9321ZM13.081 49.486L13.2043 49.4564L13.2444 49.3352L13.3166 49.443L13.4394 49.4459L13.3625 49.5403L13.3967 49.6638L13.2805 49.6184L13.1778 49.6908L13.1804 49.563L13.081 49.486ZM12.2993 47.9793C12.6033 47.9868 12.8889 48.084 13.1252 48.2436C13.1589 48.1645 13.1945 48.0056 13.0215 47.8625C12.9954 47.841 12.9854 47.8082 12.9861 47.7767C12.9921 47.7662 13.0136 47.5105 12.7873 47.3877C12.6975 47.3377 12.6392 47.3315 12.5808 47.3193C12.4853 47.3064 12.4109 47.283 12.3175 47.1908C12.2191 47.2789 12.144 47.2985 12.0535 47.3076C11.9942 47.3169 11.9356 47.3208 11.8436 47.3664C11.6119 47.4787 11.6221 47.7346 11.6219 47.7456C11.6269 47.7777 11.6152 47.8097 11.5882 47.8305C11.4092 47.9648 11.4374 48.1201 11.4678 48.2011C11.711 48.057 11.9956 47.9731 12.2993 47.9793ZM12.335 46.6304C10.7255 46.5948 9.39045 47.8713 9.35365 49.476C9.31757 51.0868 10.5936 52.4226 12.203 52.4594C13.8125 52.496 15.1428 51.2187 15.1793 49.6079C15.2157 48.0028 13.9444 46.6665 12.335 46.6304ZM14.748 48.8566C14.7425 48.8616 14.7372 48.8673 14.737 48.8776C14.6491 49.0043 14.6536 49.0418 14.6675 49.1218C14.677 49.1806 14.6854 49.2662 14.6615 49.3988C14.6065 49.7071 14.3635 49.8194 14.2567 49.854C14.1781 50.012 14.0698 50.0896 13.9573 50.1248C14.0239 50.2225 14.0584 50.3513 14.023 50.5212C14.0844 50.6185 14.2068 50.8612 14.0569 51.1356C13.9955 51.2512 13.93 51.3146 13.8865 51.3552C13.8268 51.4075 13.7991 51.4338 13.7852 51.5934C13.7852 51.5987 13.785 51.6039 13.7845 51.6094V51.6149L13.7795 51.62L13.7735 51.6307L13.768 51.6415V51.6462L13.7575 51.6513L13.7518 51.6563L13.7463 51.662L13.7358 51.6663L13.73 51.6723C13.73 51.6723 13.7245 51.6773 13.7193 51.6775C13.7085 51.6826 13.6927 51.6821 13.6817 51.6821C13.6767 51.6819 13.666 51.6814 13.6607 51.6756C13.5123 51.6355 13.4748 51.6503 13.4046 51.6862C13.3503 51.717 13.2698 51.7528 13.1412 51.7705C12.831 51.8118 12.6485 51.6161 12.5818 51.5239C12.4059 51.4981 12.296 51.4159 12.2293 51.3181C12.1574 51.4125 12.0437 51.495 11.8673 51.5129C11.7959 51.6018 11.6052 51.7894 11.2971 51.7344C11.164 51.71 11.0902 51.6716 11.0381 51.6376C10.9643 51.5989 10.9325 51.5817 10.7769 51.6164C10.7399 51.6257 10.6971 51.609 10.6768 51.582L10.6715 51.5712L10.666 51.5657C10.6613 51.5547 10.6617 51.5385 10.6565 51.5282C10.6553 51.3679 10.6285 51.3406 10.5714 51.2806C10.5246 51.2369 10.4672 51.1767 10.4111 51.0577C10.2734 50.7776 10.407 50.5403 10.473 50.4459C10.4395 50.2744 10.4854 50.1472 10.5564 50.0533C10.4455 50.0129 10.3356 49.9312 10.2698 49.7692C10.164 49.7298 9.92119 49.6065 9.88033 49.2963C9.86217 49.162 9.88033 49.0771 9.89227 49.0186C9.9047 48.9395 9.91593 48.8967 9.83397 48.7667C9.82321 48.751 9.81844 48.7292 9.81915 48.7079C9.81963 48.7029 9.81963 48.7029 9.81939 48.6972V48.6915C9.81963 48.6862 9.82513 48.6817 9.82513 48.6764C9.8366 48.6499 9.8581 48.6339 9.87961 48.6236C10.0302 48.5686 10.0469 48.5371 10.0858 48.463C10.1138 48.4104 10.1527 48.3311 10.251 48.2374C10.4744 48.0238 10.7401 48.0783 10.846 48.112C11.0023 48.0307 11.1406 48.0336 11.2522 48.068C11.2546 47.9504 11.3 47.8238 11.431 47.7091C11.4336 47.592 11.4768 47.3258 11.7626 47.1934C11.8812 47.1329 11.9665 47.1236 12.0308 47.1148C12.1055 47.1057 12.1486 47.1016 12.247 46.9807L12.2523 46.9817C12.2528 46.9752 12.258 46.9704 12.2635 46.9654H12.2688C12.2688 46.9604 12.2745 46.9602 12.2798 46.9544H12.2848L12.296 46.9501L12.3065 46.9504L12.317 46.9446L12.3225 46.9451H12.3335L12.3385 46.9513C12.3548 46.9518 12.3703 46.9566 12.3859 46.9673C12.3911 46.9733 12.3964 46.9841 12.4016 46.9896C12.4948 47.1093 12.5376 47.1155 12.6119 47.1277C12.6755 47.1399 12.7605 47.1528 12.8762 47.2194C13.1503 47.3635 13.1816 47.6314 13.1842 47.749C13.3097 47.8697 13.3496 47.998 13.3465 48.1156C13.4598 48.0797 13.5984 48.0835 13.7506 48.1722C13.8636 48.143 14.1257 48.1007 14.3444 48.3299C14.4381 48.4284 14.4734 48.5036 14.499 48.5629C14.5291 48.6327 14.5499 48.6707 14.6923 48.7278C14.6981 48.733 14.7083 48.733 14.7134 48.7388C14.7349 48.75 14.7449 48.7713 14.7499 48.7925V48.7978L14.7547 48.809L14.7545 48.8198C14.754 48.8301 14.754 48.8463 14.748 48.8566ZM14.3212 48.6444C14.2956 48.5906 14.2756 48.5366 14.2029 48.4654C14.0201 48.2742 13.7833 48.3655 13.7728 48.371C13.746 48.381 13.7085 48.3794 13.6822 48.3576C13.4934 48.231 13.3527 48.3129 13.2877 48.365C13.6225 48.6604 13.8309 49.097 13.8199 49.5775C13.817 49.7051 13.7984 49.833 13.769 49.9496C13.854 49.957 14.0091 49.9448 14.0937 49.7381C14.1052 49.7068 14.1324 49.6858 14.1645 49.676C14.1754 49.6762 14.4268 49.6232 14.4756 49.3627C14.4885 49.2619 14.4844 49.2083 14.4753 49.1491C14.461 49.0532 14.4577 48.978 14.5191 48.8621C14.4029 48.7954 14.3618 48.7309 14.3212 48.6444Z" fill="#D11317"/>
</g>
<mask id="mask2_1140_20733" style="mask-type:luminance" maskUnits="userSpaceOnUse" x="6" y="41" width="15" height="22">
<path d="M8.81552 52.0873C8.81552 52.0873 7.60852 54.9152 6.4873 57.8568L17.2975 62.1909C17.9269 60.0448 18.2954 58.5737 19.37 55.0543C19.37 55.0543 23.2224 44.4784 18.8646 42.2403C18.8646 42.2403 18.3874 41.949 17.5704 41.9488C15.7925 41.9488 12.4047 43.3276 8.81552 52.0873Z" fill="white"/>
</mask>
<g mask="url(#mask2_1140_20733)">
<path d="M9.78491 51.3964L9.63866 51.729L9.77726 51.7271L9.94573 51.5919L10.0236 51.6949L9.46972 52.1362L9.39181 52.0385L9.63078 51.8409L9.24676 51.8538L9.14807 51.7341L9.50532 51.7262L9.69171 51.2764L9.78491 51.3964Z" fill="#D11317"/>
</g>
<path d="M12.0714 46.5132L12.0337 45.8023L12.1623 45.8001L12.1998 46.5051L12.0714 46.5132Z" fill="#D11317"/>
<path d="M12.7173 46.4578C12.6685 46.5049 12.6093 46.525 12.5347 46.5175C12.4604 46.5163 12.4023 46.4827 12.3607 46.4284C12.3041 46.3529 12.3113 46.2621 12.3192 46.1395C12.3273 46.0169 12.3349 45.9314 12.4059 45.8642C12.4599 45.8171 12.5194 45.7968 12.5935 45.8042C12.6683 45.8059 12.7209 45.8389 12.762 45.8936C12.8243 45.9694 12.8172 46.0599 12.8035 46.1825C12.7957 46.2998 12.7882 46.3899 12.7173 46.4578ZM12.6592 45.9715C12.6439 45.9438 12.6174 45.9278 12.5801 45.9266C12.5483 45.9206 12.5161 45.9361 12.4943 45.9565C12.4666 45.9835 12.4611 46.0145 12.4472 46.1529C12.4384 46.286 12.4434 46.3185 12.4642 46.3512C12.4795 46.3775 12.5108 46.394 12.5428 46.3957C12.5803 46.4016 12.6073 46.3861 12.6289 46.3653C12.6561 46.3393 12.6673 46.3075 12.6764 46.1691C12.6898 46.0363 12.6852 45.9985 12.6592 45.9715Z" fill="#D11317"/>
<path d="M13.2515 46.6566L13.1136 46.1627L12.9975 46.5816L12.8754 46.5465L13.0613 45.8681L13.1729 45.8974L13.311 46.3857L13.4271 45.9672L13.5492 46.0019L13.3576 46.6858L13.2515 46.6566Z" fill="#D11317"/>
<path d="M13.8063 46.8986L13.8251 46.7712L13.6141 46.6649L13.5264 46.759L13.4055 46.6976L13.9346 46.1704L14.024 46.2204L13.9272 46.9604L13.8063 46.8986ZM13.8923 46.3836L13.7014 46.5757L13.8493 46.6486L13.8923 46.3836Z" fill="#D11317"/>
<path d="M13.9586 46.987L14.3823 46.4207L14.4867 46.4976L14.135 46.9698L14.3766 47.1462L14.3049 47.2456L13.9586 46.987Z" fill="#D11317"/>
<path d="M14.6326 47.595C14.5444 47.492 14.5478 47.3474 14.6622 47.2487L15.0154 46.9477L15.0986 47.0452L14.7506 47.3412C14.6907 47.3933 14.6782 47.4629 14.7253 47.5173C14.7719 47.5661 14.836 47.5728 14.9014 47.5159L15.2489 47.2196L15.3323 47.3178L14.9789 47.6191C14.8649 47.7178 14.7213 47.6987 14.6326 47.595Z" fill="#D11317"/>
<path d="M15.0458 48.2074L15.2955 47.7644L14.9177 47.9747L14.8561 47.8616L15.4721 47.5178L15.528 47.6205L15.2783 48.0576L15.6564 47.8473L15.7178 47.9615L15.1022 48.3044L15.0458 48.2074Z" fill="#D11317"/>
<path d="M15.1366 48.4178L15.7983 48.1662L15.8437 48.2843L15.1873 48.5361L15.1366 48.4178Z" fill="#D11317"/>
<path d="M15.2862 48.8795L15.2616 48.7887L15.8944 48.4023L15.9288 48.5313L15.5123 48.7729L15.9921 48.7892L16.0265 48.9175L15.2862 48.8795Z" fill="#D11317"/>
<path d="M15.3445 49.1371L16.0494 49.0785L16.0826 49.5115L15.9598 49.5247L15.9345 49.2202L15.7694 49.2327L15.7899 49.4883L15.6673 49.5015L15.6461 49.2398L15.4757 49.2522L15.5003 49.5617L15.3772 49.5701L15.3445 49.1371Z" fill="#D11317"/>
<path d="M15.3404 50.0068L15.6365 49.9069L15.6436 49.8161L15.3614 49.7886L15.375 49.6608L16.0831 49.7303L16.0559 49.9855C16.0425 50.1189 15.939 50.1911 15.8221 50.1779C15.7208 50.1705 15.664 50.1046 15.6439 50.0403L15.3265 50.1562L15.3404 50.0068ZM15.9337 49.9671L15.9469 49.8443L15.7607 49.824L15.7474 49.9468C15.7407 50.0056 15.777 50.0431 15.8303 50.0503C15.8888 50.0563 15.9271 50.0204 15.9337 49.9671Z" fill="#D11317"/>
<path d="M15.2522 50.3996C15.2809 50.3042 15.3248 50.2357 15.4116 50.1948L15.4727 50.298C15.419 50.3231 15.3908 50.3762 15.3738 50.4345C15.3506 50.5086 15.3709 50.5568 15.424 50.5688C15.4508 50.58 15.472 50.5752 15.488 50.565C15.5043 50.5602 15.5158 50.5442 15.5267 50.5179L15.5604 50.4443C15.5824 50.3912 15.6154 50.3547 15.6534 50.3339C15.6912 50.3138 15.7389 50.3148 15.7975 50.3269C15.9191 50.3618 15.9808 50.4691 15.9457 50.607C15.9175 50.6971 15.8785 50.7504 15.8085 50.791L15.7466 50.6885C15.7953 50.6629 15.8176 50.6147 15.8293 50.5726C15.8467 50.504 15.8159 50.4603 15.7681 50.4491C15.7519 50.4426 15.7303 50.4426 15.7146 50.4524C15.6986 50.4636 15.6821 50.4787 15.6706 50.5047L15.6424 50.5793C15.6144 50.6321 15.5872 50.6634 15.5547 50.684C15.5112 50.7095 15.4584 50.7086 15.3944 50.6909C15.2622 50.6555 15.2171 50.5322 15.2522 50.3996Z" fill="#D11317"/>
<path d="M15.1595 50.7119L15.8093 50.9886L15.7586 51.1045L15.1089 50.8337L15.1595 50.7119Z" fill="#D11317"/>
<path d="M15.4472 51.4496L14.9358 51.1607L15.0027 51.0503L15.5079 51.3389L15.5968 51.1862L15.7017 51.2469L15.4684 51.6582L15.3633 51.5968L15.4472 51.4496Z" fill="#D11317"/>
<path d="M14.8801 51.7463L14.6548 51.5656L14.7317 51.4598L14.9626 51.6416L15.4135 51.7477L15.3256 51.8581L15.0235 51.7762L15.1719 52.0519L15.0842 52.1616L14.8801 51.7463Z" fill="#D11317"/>
<path d="M11.6289 53.0976L11.5591 53.3411L11.453 53.3119L11.5111 53.1052L11.0135 52.9606L11.0417 52.8703L11.2857 52.9456L11.3087 52.8713L11.0222 52.79L11.0458 52.7054L11.7292 52.9023L11.7063 52.9819L11.4148 52.9004L11.3918 52.9743L11.5983 53.0323C11.5983 53.0323 11.6406 53.0438 11.6289 53.0976Z" fill="#D11317"/>
<path d="M11.1427 52.67L11.7043 52.8325L11.7853 52.5458L11.6794 52.5164L11.6615 52.5749L11.2696 52.465L11.2871 52.4067L11.1812 52.3773L11.1172 52.6158C11.1172 52.6158 11.1004 52.6586 11.1427 52.67ZM11.6388 52.6597L11.6271 52.7128L11.2292 52.6031L11.2469 52.5443L11.6388 52.6597Z" fill="#D11317"/>
<path d="M11.9623 53.2064L12.2128 53.2119L12.2147 53.1213L12.0013 53.1166L12.0113 52.6953L12.2082 52.6993L12.2106 52.604L11.9069 52.5971L11.8945 53.1354C11.8945 53.1354 11.8875 53.2038 11.9623 53.2064Z" fill="#D11317"/>
<path d="M12.4775 52.8233L12.3761 52.8211L12.3812 52.6022L12.2748 52.6001L12.26 53.2343L12.3671 53.2367L12.3742 52.9167L12.4753 52.9191L12.4679 53.2391L12.5747 53.2412L12.5888 52.6068L12.4822 52.6046L12.4775 52.8233Z" fill="#D11317"/>
<path d="M14.1561 52.6369L14.0285 52.3941L13.9312 52.4455L14.0643 52.6885L13.9563 52.7504L13.8232 52.5066L13.731 52.558L13.8593 52.8011L13.7353 52.8675L13.7811 52.9487L14.4345 52.5953L14.3881 52.5143L14.1561 52.6369Z" fill="#D11317"/>
<path d="M14.1193 52.14L14.2782 52.432L14.1814 52.4827L14.0378 52.2181L13.568 52.4688L13.5219 52.3878L14.0347 52.1116C14.0347 52.1116 14.0889 52.0803 14.1193 52.14Z" fill="#D11317"/>
<path d="M13.4188 52.9355L12.8663 53.0672L12.8911 53.1528L13.3793 53.0409L13.4278 53.2393L13.5296 53.2096L13.4768 52.963C13.4618 52.92 13.4188 52.9355 13.4188 52.9355ZM13.3839 52.5929L13.3397 52.4105L13.2381 52.4349L13.3449 52.8961L13.4525 52.8715L13.4087 52.6844L13.4993 52.66L13.4802 52.5735L13.3839 52.5929ZM12.8914 52.6557C12.8161 52.703 12.7719 52.7816 12.7915 52.8567C12.8156 52.9535 12.9212 53.0091 13.0283 52.9848C13.1361 52.9606 13.207 52.8615 13.1827 52.7644C13.1631 52.6889 13.0842 52.634 12.9937 52.6318L12.9886 52.611L13.1499 52.5718L13.1301 52.4798L12.97 52.5193L12.9547 52.466L12.8527 52.4903L12.8677 52.5436L12.7177 52.5778L12.737 52.6693L12.8923 52.6301L12.8969 52.6559L12.8914 52.6557ZM12.9647 52.7274C13.0185 52.7126 13.0711 52.7408 13.0806 52.7888C13.0902 52.8373 13.0572 52.8842 13.0087 52.8937C12.9554 52.9085 12.9026 52.8806 12.8931 52.833C12.8835 52.7845 12.9162 52.7372 12.9647 52.7274Z" fill="#D11317"/>
<path d="M10.791 52.8967C10.8412 52.7965 10.775 52.6618 10.6378 52.5944C10.5009 52.5277 10.3508 52.5559 10.3061 52.6512C10.2559 52.7459 10.3276 52.8809 10.4593 52.948C10.5967 53.0154 10.7461 52.992 10.791 52.8967ZM10.4983 52.874C10.4192 52.835 10.3728 52.754 10.4012 52.7017C10.4285 52.6486 10.5198 52.6338 10.5986 52.6737C10.6672 52.7074 10.73 52.7839 10.6961 52.8465C10.6627 52.91 10.5666 52.9081 10.4983 52.874Z" fill="#D11317"/>
<path d="M10.7642 52.1914L10.4686 52.0466L10.4301 52.12L10.6509 52.2323C10.6452 52.2428 10.6291 52.2583 10.6069 52.2841C10.4817 52.4094 10.3015 52.352 10.3015 52.352L10.2628 52.4256C10.6385 52.5515 10.774 52.2292 10.774 52.2292C10.7904 52.2034 10.7642 52.1914 10.7642 52.1914ZM10.9699 52.2815L10.931 52.3554L10.7833 52.283L10.7388 52.3618L10.8915 52.44L10.8638 52.4983L10.7056 52.4199L10.6659 52.504L10.8194 52.5771L10.7742 52.6777L10.8748 52.7222L11.0703 52.3317L10.9699 52.2815Z" fill="#D11317"/>
<path d="M17.2975 62.8149C17.2394 62.8149 17.1804 62.8068 17.1218 62.7894C16.7911 62.6926 16.6018 62.3461 16.6989 62.0154C16.9209 61.2588 17.1099 60.5868 17.3101 59.8752C17.6698 58.5989 18.0772 57.1522 18.7733 54.8723C18.7766 54.8618 18.78 54.8517 18.7838 54.8412C19.8018 52.0427 21.7496 44.4231 18.5795 42.7955C18.5661 42.7883 18.5525 42.7809 18.5393 42.7728C18.515 42.759 17.7429 42.3322 16.4855 42.7659C14.7979 43.3473 12.1975 45.4776 9.39232 52.324C9.37679 52.3605 8.17361 55.1832 7.06984 58.0792C6.94725 58.401 6.5869 58.5626 6.26501 58.4398C5.94313 58.3172 5.78159 57.957 5.90442 57.6352C7.01703 54.7153 8.22953 51.8706 8.24171 51.8424C10.655 45.9527 13.3182 42.4904 16.1543 41.561C17.8184 41.0152 18.9597 41.5799 19.1599 41.6913C21.2215 42.7575 21.9646 45.41 21.3689 49.5749C20.9584 52.4425 20.0513 55.0032 19.9617 55.2517C19.2725 57.5097 18.8679 58.9461 18.5109 60.2131C18.3097 60.9281 18.1197 61.6034 17.8956 62.3666C17.8158 62.6386 17.5672 62.8149 17.2975 62.8149Z" fill="black"/>
</svg>
